<svg xmlns="http://www.w3.org/2000/svg" width="120.685" height="37.699" viewBox="0 0 120.685 37.699">
    <g data-name="Group 1">
        <path d="M48.929 200.568h9.321a18.238 18.238 0 0 1 4.583.557 16.456 16.456 0 0 1 3.91 1.54 13.539 13.539 0 0 1 3.405 2.538 15.022 15.022 0 0 1 2.5 3.418 18.691 18.691 0 0 1 1.605 4.324 21.344 21.344 0 0 1 .57 5.023v2.952a21.477 21.477 0 0 1-.531 4.855 17.646 17.646 0 0 1-1.515 4.181 15.9 15.9 0 0 1-2.317 3.34 14.9 14.9 0 0 1-3.017 2.563 15.463 15.463 0 0 1-4.13 1.787 18.3 18.3 0 0 1-4.855.621h-9.529zm6.292 32.65h3.237a10.894 10.894 0 0 0 3.043-.4 8.817 8.817 0 0 0 2.5-1.152 8.689 8.689 0 0 0 2.032-1.955A10.525 10.525 0 0 0 67.494 227a15 15 0 0 0 .751-2.822 19.567 19.567 0 0 0 .259-3.263v-3a19.4 19.4 0 0 0-.259-3.237 15.011 15.011 0 0 0-.751-2.822A10.832 10.832 0 0 0 65.837 209a8.511 8.511 0 0 0-2.46-2.084 9.056 9.056 0 0 0-2.33-.919 12.426 12.426 0 0 0-2.8-.35h-3.026z" data-name="Path 1" transform="translate(-48.929 -200.568)"/>
        <path d="M87.506 229.593l-2.563 8.674H78.47l12.273-37.7h5.515l12.066 37.7h-6.447l-2.537-8.674zm10.305-5.334l-4.324-14.914-4.4 14.914z" data-name="Path 2" transform="translate(-48.929 -200.568)"/>
        <path d="M119.33 229.593l-2.563 8.674h-6.473l12.273-37.7h5.515l12.066 37.7h-6.447l-2.537-8.674zm10.305-5.334l-4.324-14.914-4.4 14.914z" data-name="Path 3" transform="translate(-48.929 -200.568)"/>
        <path d="M156.719 216.7l5.153-16.131h7.742v37.7h-5.852v-12.792l.363-16.83-5.8 18h-3.237l-5.256-17.374.336 16.209v12.791h-5.826v-37.7h7.716z" data-name="Path 4" transform="translate(-48.929 -200.568)"/>
    </g>
</svg>
