<?xml version="1.0" standalone="no"?>
<!DOCTYPE svg PUBLIC "-//W3C//DTD SVG 20010904//EN"
 "http://www.w3.org/TR/2001/REC-SVG-20010904/DTD/svg10.dtd">
<svg version="1.0" xmlns="http://www.w3.org/2000/svg"
 width="1936.000000pt" height="1936.000000pt" viewBox="0 0 1936.000000 1936.000000"
 preserveAspectRatio="xMidYMid meet">
<metadata>
Created by potrace 1.11, written by Peter Selinger 2001-2013
</metadata>
<g transform="translate(0.000000,1936.000000) scale(0.100000,-0.100000)"
fill="#000000" stroke="none">
<path d="M0 9675 l0 -3026 898 4 c493 2 917 7 942 10 25 3 68 9 95 13 28 3 57
7 65 9 8 2 31 6 50 9 19 4 58 11 85 16 28 6 60 12 73 15 13 2 32 7 42 10 16 5
29 8 75 18 6 2 15 5 20 9 6 3 26 9 45 14 43 10 41 9 65 18 11 4 31 12 45 17
14 5 39 14 55 20 17 7 32 13 35 14 84 26 392 190 465 247 6 5 38 30 73 57 139
109 252 214 355 330 63 72 201 261 259 356 49 82 178 334 178 350 0 4 6 21 14
38 16 36 66 174 71 197 3 8 11 40 20 70 25 83 44 160 51 205 3 22 8 43 10 47
3 4 7 22 9 40 3 18 7 42 9 53 4 22 22 145 31 215 13 109 18 280 18 625 0 386
-8 583 -29 705 -3 19 -8 51 -11 70 -7 58 -12 85 -13 90 -1 3 -3 10 -5 15 -1 6
-3 12 -4 15 -2 3 -4 16 -5 30 -4 30 -38 174 -60 250 -9 30 -18 62 -20 70 -8
29 -37 115 -46 135 -5 11 -21 52 -36 90 -46 120 -168 365 -186 373 -5 2 -8 8
-8 13 0 12 -96 155 -122 183 -10 11 -18 23 -18 27 0 4 -6 14 -14 22 -8 7 -37
41 -64 74 -97 116 -352 353 -381 353 -5 0 -11 4 -13 8 -4 11 -94 72 -106 72
-6 0 -12 4 -14 8 -5 13 -177 108 -275 153 -48 22 -99 46 -113 53 -14 7 -74 30
-135 51 -60 20 -117 39 -125 42 -8 4 -24 8 -35 10 -11 2 -31 7 -45 12 -14 6
-59 17 -100 26 -98 22 -107 24 -154 31 -22 3 -43 7 -46 9 -3 1 -36 6 -73 10
-37 3 -78 9 -90 12 -12 4 -424 8 -914 10 l-893 4 0 -3026z m1655 2201 c44 -3
91 -8 105 -11 14 -3 43 -7 65 -10 22 -3 48 -8 57 -11 9 -2 26 -7 37 -9 46 -10
57 -14 84 -24 15 -6 27 -8 27 -5 0 4 7 1 15 -6 8 -7 15 -10 15 -6 0 4 13 0 30
-9 16 -8 33 -16 37 -16 16 -2 60 -21 123 -53 93 -46 105 -54 205 -127 155
-114 285 -255 382 -418 28 -48 123 -229 125 -238 1 -5 8 -24 16 -43 8 -19 15
-39 17 -45 1 -5 5 -17 8 -25 5 -12 22 -69 44 -145 5 -19 34 -150 39 -175 3
-14 9 -50 15 -80 6 -30 12 -71 14 -90 2 -19 7 -71 12 -115 10 -101 11 -959 0
-1081 -4 -49 -12 -117 -17 -150 -6 -32 -13 -77 -16 -99 -3 -22 -8 -47 -10 -55
-3 -8 -8 -26 -10 -40 -2 -14 -7 -36 -11 -50 -3 -14 -7 -29 -8 -35 -16 -68 -66
-226 -90 -280 -7 -16 -25 -59 -41 -95 -86 -197 -256 -423 -418 -554 -105 -85
-255 -170 -371 -210 -27 -10 -57 -21 -65 -26 -13 -6 -40 -14 -90 -25 -3 -1
-18 -4 -35 -8 -151 -36 -260 -44 -600 -45 l-335 -1 0 2208 c0 1214 2 2210 4
2212 7 7 550 3 641 -5z"/>
<path d="M6705 12688 c-14 -36 -96 -285 -100 -299 -3 -16 -64 -204 -160 -494
-26 -77 -48 -144 -49 -150 -3 -15 -113 -351 -158 -485 -21 -63 -41 -122 -43
-130 -2 -8 -17 -58 -35 -110 -17 -52 -33 -103 -35 -112 -2 -9 -9 -26 -15 -37
-6 -12 -9 -21 -6 -21 3 0 -2 -17 -10 -37 -9 -20 -17 -44 -19 -52 -2 -9 -29
-94 -60 -189 -31 -95 -58 -178 -59 -185 -1 -7 -5 -18 -9 -24 -5 -7 -10 -21
-12 -30 -4 -24 -35 -123 -45 -148 -9 -20 -23 -65 -25 -75 0 -3 -3 -9 -6 -15
-4 -5 -10 -26 -14 -45 -4 -19 -10 -39 -14 -45 -3 -5 -6 -12 -7 -15 0 -3 -13
-45 -29 -95 -16 -49 -29 -92 -30 -95 -1 -8 -46 -143 -52 -160 -4 -8 -7 -17 -7
-20 -1 -3 -40 -120 -86 -260 -46 -140 -84 -257 -85 -260 -1 -3 -9 -32 -20 -65
-10 -33 -18 -63 -17 -67 1 -5 -2 -8 -6 -8 -5 0 -9 -6 -9 -12 0 -12 -135 -433
-150 -468 -3 -8 -7 -21 -9 -28 -3 -17 -134 -422 -144 -447 -9 -23 -173 -525
-176 -540 -1 -5 -28 -89 -60 -185 -32 -96 -58 -177 -59 -180 -1 -6 -135 -419
-142 -437 -4 -11 96 -13 514 -13 l520 0 13 43 c7 23 14 47 16 53 2 13 51 176
66 219 5 17 12 40 14 53 3 13 12 44 20 69 9 25 17 53 19 62 3 16 13 48 95 321
22 74 43 144 45 154 2 10 9 33 15 51 6 18 12 41 15 51 2 10 10 38 19 62 8 23
16 46 16 50 0 4 5 23 10 42 5 19 10 40 11 45 0 6 5 16 11 23 6 6 8 12 5 12 -3
0 0 15 8 34 8 18 11 36 8 40 -4 3 0 6 8 7 18 1 1882 1 1891 0 4 -1 12 -20 18
-43 6 -24 20 -72 32 -108 11 -36 21 -69 22 -75 2 -5 8 -30 15 -55 7 -25 15
-52 16 -60 2 -8 9 -31 15 -50 6 -19 26 -87 45 -150 18 -63 50 -171 70 -240 20
-69 38 -132 40 -140 2 -8 10 -35 18 -60 16 -46 35 -117 38 -135 0 -5 5 -17 10
-26 4 -9 10 -27 13 -40 3 -13 15 -55 26 -94 12 -38 24 -80 27 -92 l5 -23 518
0 518 0 -13 43 c-7 23 -24 76 -38 117 -53 163 -101 316 -104 334 -2 11 -7 24
-12 30 -6 9 -28 78 -37 116 0 3 -3 12 -7 20 -7 18 -149 461 -152 475 -1 6 -5
17 -8 25 -3 8 -29 89 -57 180 -62 197 -61 194 -62 200 0 3 -4 12 -9 21 -4 9
-10 27 -13 40 -3 13 -17 58 -31 99 -15 41 -27 80 -29 85 -3 14 -26 87 -33 105
-3 8 -7 21 -9 29 -1 7 -15 50 -29 94 -15 45 -28 86 -30 92 -1 5 -7 23 -13 38
-7 16 -12 32 -12 36 0 8 -76 246 -87 271 -3 8 -7 21 -9 27 -1 7 -28 93 -60
190 -32 98 -58 183 -60 188 -1 6 -23 76 -49 155 -26 80 -48 150 -49 155 -2 6
-6 17 -9 25 -3 8 -18 56 -33 105 -15 50 -30 99 -35 110 -8 20 -22 65 -24 75 0
3 -27 86 -59 185 -113 352 -155 482 -200 625 -26 80 -49 152 -53 160 -3 8 -8
23 -9 32 -2 10 -20 66 -40 125 -19 59 -37 115 -39 123 -2 8 -9 29 -15 45 -6
17 -13 37 -15 45 -3 16 -72 235 -82 260 -3 8 -7 20 -8 25 -5 19 -47 150 -54
170 -11 28 -31 91 -36 112 -2 10 -20 65 -40 123 -19 58 -37 114 -40 124 -2 10
-10 35 -17 55 -7 20 -13 39 -14 44 -1 4 -3 9 -4 12 -1 3 -3 8 -4 13 -1 4 -18
59 -38 122 -21 63 -38 120 -38 125 -1 6 -6 18 -11 28 -9 16 -41 17 -450 17
-342 0 -441 -3 -444 -12z m469 -1488 c10 -36 24 -85 33 -110 8 -25 17 -54 19
-65 2 -11 11 -42 19 -70 61 -203 87 -293 99 -345 2 -8 13 -44 25 -79 12 -35
21 -72 21 -81 0 -9 3 -20 7 -24 4 -3 8 -13 9 -22 1 -8 12 -48 24 -87 12 -40
24 -79 25 -87 2 -8 20 -69 40 -135 19 -66 37 -128 38 -137 2 -10 6 -21 10 -24
4 -4 7 -18 7 -31 0 -13 4 -31 10 -41 7 -13 24 -66 35 -112 1 -6 10 -36 31
-105 36 -121 114 -395 128 -450 2 -5 6 -17 9 -25 4 -8 8 -24 10 -35 2 -11 7
-27 10 -35 7 -19 37 -126 47 -167 5 -23 4 -33 -4 -34 -53 -2 -1378 0 -1381 3
-2 1 3 21 10 43 20 63 38 123 120 405 42 146 80 272 83 280 3 8 6 17 6 20 1 3
7 23 13 45 7 22 26 85 42 140 16 55 50 172 76 260 26 87 48 164 50 170 1 5 5
17 8 25 6 17 118 399 121 415 2 6 13 44 26 85 13 41 24 80 26 85 1 6 25 89 54
185 29 96 55 185 57 198 8 33 17 17 37 -58z"/>
<path d="M11756 12528 c-31 -95 -56 -177 -56 -181 0 -5 -6 -23 -14 -40 -12
-30 -155 -464 -160 -490 -2 -7 -6 -19 -9 -27 -7 -18 -38 -111 -41 -125 -2 -5
-6 -17 -9 -25 -3 -8 -13 -40 -22 -70 -9 -30 -20 -62 -24 -70 -5 -9 -12 -31
-16 -50 -4 -19 -13 -48 -20 -65 -6 -16 -17 -46 -23 -65 -5 -19 -38 -120 -72
-223 -34 -103 -63 -195 -65 -205 -2 -9 -17 -55 -33 -102 -31 -91 -103 -308
-107 -325 -1 -5 -5 -17 -8 -25 -7 -17 -170 -521 -173 -532 -1 -5 -3 -10 -4
-13 -1 -3 -4 -9 -5 -15 -1 -5 -4 -12 -5 -15 -1 -3 -3 -8 -4 -12 -1 -6 -125
-390 -181 -561 -3 -7 -5 -16 -6 -20 -1 -4 -16 -45 -32 -92 -16 -47 -30 -89
-31 -95 -1 -5 -27 -84 -56 -175 -30 -91 -55 -167 -55 -170 -1 -3 -46 -140
-100 -305 -54 -165 -100 -302 -100 -305 -1 -3 -5 -12 -8 -20 -3 -8 -14 -42
-23 -75 -9 -33 -20 -64 -24 -70 -5 -5 -8 -12 -8 -15 1 -8 -9 -41 -115 -365
-56 -170 -102 -312 -102 -315 -11 -42 -19 -67 -24 -75 -3 -5 -6 -14 -7 -20 -1
-5 -19 -62 -40 -125 -21 -63 -38 -117 -39 -120 0 -3 -20 -62 -43 -132 -23 -70
-42 -132 -42 -138 0 -7 162 -9 517 -8 l517 3 39 130 c21 72 47 162 58 200 11
39 22 77 26 85 3 8 7 20 8 27 5 20 56 196 82 278 13 44 26 87 28 95 2 8 41
141 86 295 l83 280 943 -1 c557 0 947 -4 952 -10 7 -7 38 -104 45 -139 1 -5 7
-26 13 -45 22 -69 93 -312 123 -420 12 -41 24 -82 27 -90 3 -8 7 -19 8 -25 2
-5 28 -98 60 -205 31 -107 65 -224 75 -260 11 -36 27 -94 38 -130 l19 -65 516
-3 c285 -1 517 1 517 5 0 5 -14 49 -30 98 -17 50 -32 97 -34 105 -6 20 -93
294 -111 345 -17 52 -109 338 -110 345 -1 8 -56 183 -65 205 -4 11 -27 81 -50
155 -23 74 -45 142 -48 150 -3 8 -6 20 -7 25 -2 6 -12 37 -23 70 -11 33 -41
128 -67 210 -26 83 -52 164 -58 180 -7 17 -12 32 -13 35 0 3 -9 32 -19 65 -11
33 -19 62 -20 65 -1 6 -76 240 -83 260 -3 8 -6 17 -7 20 -1 3 -4 12 -7 20 -4
8 -27 83 -53 165 -26 83 -57 182 -70 220 -12 39 -53 165 -90 280 -36 116 -93
291 -124 390 -32 99 -75 234 -95 300 -20 66 -41 127 -45 135 -5 9 -12 31 -16
50 -4 19 -13 49 -20 65 -7 17 -23 64 -35 105 -13 41 -36 116 -52 165 -17 50
-31 95 -32 100 -3 12 -25 84 -33 105 -4 8 -5 19 -4 24 1 4 -3 13 -8 20 -5 6
-14 31 -20 56 -7 25 -16 54 -21 65 -5 11 -25 74 -46 140 -20 66 -61 196 -92
289 -30 93 -55 175 -56 182 -1 7 -5 17 -9 20 -4 4 -7 17 -7 29 0 11 -4 25 -8
31 -7 7 -30 74 -38 109 -1 6 -11 37 -22 70 -11 33 -50 155 -87 270 -36 116
-73 231 -82 258 l-15 47 -442 0 -443 0 -57 -172z m507 -1274 c2 -10 7 -26 10
-34 10 -27 28 -87 32 -111 3 -13 9 -35 14 -49 9 -22 41 -130 47 -155 1 -5 27
-98 59 -205 31 -107 63 -217 71 -245 8 -27 16 -59 19 -71 3 -11 14 -49 25 -83
18 -58 38 -126 45 -161 2 -8 9 -31 15 -50 10 -32 78 -262 84 -285 15 -58 41
-147 54 -185 6 -18 9 -29 16 -55 16 -62 80 -284 88 -305 3 -8 16 -51 28 -95
12 -44 26 -91 31 -105 5 -14 10 -34 12 -45 2 -11 6 -27 9 -35 29 -87 29 -80
-5 -81 -42 0 -1233 0 -1315 0 -56 1 -61 3 -52 19 5 9 25 71 44 137 19 66 43
145 52 175 10 30 18 60 20 67 1 6 32 113 69 237 37 125 68 232 69 239 2 6 6
19 9 27 15 40 51 166 49 173 -1 4 3 17 9 28 8 16 30 87 43 144 4 17 47 158 62
202 7 23 15 52 18 65 4 21 52 184 64 218 3 8 6 20 7 25 2 6 20 66 40 135 21
69 46 157 57 195 10 39 21 75 22 80 2 6 5 15 6 20 2 6 11 35 22 65 10 30 21
68 24 84 8 50 20 58 27 20z"/>
<path d="M15308 12688 c-2 -7 -4 -1367 -3 -3023 l0 -3010 470 -3 470 -2 -2
162 c-1 90 -2 166 -3 171 -2 9 -2 86 0 90 2 3 2 141 0 152 -1 6 -2 14 -1 18 2
8 2 212 0 247 0 8 0 44 0 80 1 36 1 72 1 80 -1 8 -1 80 -1 160 0 80 0 152 0
160 0 8 1 76 1 150 1 74 1 138 0 143 -2 9 -2 86 0 90 2 3 2 141 0 152 -1 6 -2
14 -1 18 3 18 2 241 -3 442 -3 116 -8 329 -11 475 -2 146 -7 369 -10 495 -3
127 -8 345 -10 485 -3 140 -6 270 -8 288 -2 17 1 32 6 32 4 0 5 5 1 11 -4 7
-9 118 -11 248 -2 130 -5 242 -8 249 -2 6 0 12 5 12 9 0 17 -24 69 -195 16
-55 44 -147 62 -205 18 -58 33 -107 34 -110 0 -3 6 -23 12 -45 7 -22 29 -94
48 -160 20 -66 41 -131 46 -145 5 -14 11 -34 14 -45 2 -11 13 -49 24 -85 11
-36 42 -139 69 -230 104 -343 151 -496 162 -525 6 -16 11 -31 11 -32 -1 -2 -1
-4 0 -5 0 -2 2 -11 4 -20 2 -10 13 -48 25 -85 12 -38 23 -75 25 -83 2 -8 8
-27 14 -43 6 -15 13 -38 15 -50 3 -12 17 -60 32 -107 14 -47 30 -98 34 -115 5
-16 27 -91 50 -165 23 -74 43 -139 44 -145 2 -5 12 -42 24 -80 l21 -70 253 1
c286 2 279 1 276 12 -1 4 13 54 32 112 19 58 34 107 35 110 0 3 23 73 50 155
27 83 50 155 51 160 1 6 20 64 42 130 47 145 146 448 147 455 3 17 58 188 65
205 5 11 34 101 66 200 31 99 71 225 89 280 19 55 57 174 85 265 29 91 56 174
60 185 7 17 19 52 25 75 1 3 4 12 7 20 3 8 12 38 20 65 9 28 35 109 58 180 23
72 43 135 45 140 2 10 5 19 30 85 12 30 13 8 9 -170 -2 -113 -6 -315 -9 -450
-3 -135 -8 -351 -11 -480 -2 -129 -6 -307 -8 -396 -2 -89 -6 -166 -10 -172 -3
-6 -3 -13 2 -16 4 -2 6 -24 5 -48 -10 -148 -15 -570 -19 -1695 l-5 -1273 470
0 471 0 0 3025 0 3025 -622 -2 -621 -3 -49 -155 c-27 -85 -52 -162 -55 -170
-4 -8 -7 -17 -8 -20 0 -3 -9 -32 -20 -65 -10 -33 -19 -62 -20 -65 0 -3 -21
-66 -45 -140 -24 -74 -45 -137 -45 -140 -1 -3 -10 -32 -20 -65 -11 -33 -20
-62 -20 -65 -1 -3 -4 -12 -8 -20 -6 -17 -31 -92 -32 -100 -3 -16 -69 -221 -81
-255 -9 -22 -17 -47 -19 -55 -3 -15 -19 -66 -125 -395 -29 -88 -53 -167 -55
-175 -2 -8 -4 -16 -5 -17 -2 -2 -4 -7 -5 -13 -1 -5 -4 -12 -5 -15 -1 -3 -3 -8
-5 -12 -1 -5 -4 -15 -7 -23 -4 -8 -20 -62 -38 -120 -17 -58 -37 -121 -45 -140
-12 -32 -65 -200 -71 -225 -1 -5 -11 -37 -22 -70 -19 -60 -24 -60 -38 0 -1 6
-20 71 -42 145 -22 74 -42 144 -45 155 -3 11 -31 106 -61 210 -31 105 -59 199
-61 210 -3 11 -12 43 -20 70 -17 58 -79 269 -106 365 -10 36 -27 95 -38 133
-11 37 -21 71 -22 75 -1 4 -3 12 -5 17 -8 24 -96 332 -100 350 -2 11 -13 48
-24 82 -11 34 -22 70 -23 80 -2 10 -7 25 -10 33 -5 12 -21 68 -33 113 -1 4 -2
8 -4 10 -1 1 -3 9 -5 17 -1 8 -10 41 -20 72 -9 32 -17 60 -17 62 0 3 -22 76
-47 163 l-46 158 -617 3 c-488 2 -617 0 -620 -10z"/>
</g>
</svg>
